HIERARCHY
ROOT hip
{
	OFFSET 0.000000 0.000000 0.000000 
	CHANNELS 6 Xposition Yposition Zposition Xrotation Zrotation Yrotation
	JOINT abdomen
	{
		OFFSET 0.000000 3.402643 0.000000 
		CHANNELS 3 Xrotation Zrotation Yrotation
		JOINT chest
		{
			OFFSET 0.000000 8.438565 -0.680529 
			CHANNELS 3 Xrotation Zrotation Yrotation
			JOINT neck
			{
				OFFSET 0.000000 10.207942 -0.272212 
				CHANNELS 3 Xrotation Zrotation Yrotation
				JOINT head
				{
					OFFSET 0.000000 3.130431 0.000000 
					CHANNELS 3 Xrotation Zrotation Yrotation
					End Site
					{
						OFFSET 0.000000 3.130435 0.000000 
					}
				}
			}
			JOINT lCollar
			{
				OFFSET 3.470700 6.669187 -0.816635 
				CHANNELS 3 Yrotation Zrotation Xrotation
				JOINT lShldr
				{
					OFFSET 3.198488 0.000000 0.000000 
					CHANNELS 3 Zrotation Yrotation Xrotation
					JOINT lForeArm
					{
						OFFSET 10.139888 0.000000 0.000000 
						CHANNELS 3 Yrotation Zrotation Xrotation
						JOINT lHand
						{
							OFFSET 8.370511 0.000000 0.000000 
							CHANNELS 3 Zrotation Yrotation Xrotation
							End Site
							{
								OFFSET 4.083176 0.000000 0.000000 
							}
						}
					}
				}
			}
			JOINT rCollar
			{
				OFFSET -3.470700 6.669187 -0.816635 
				CHANNELS 3 Yrotation Zrotation Xrotation
				JOINT rShldr
				{
					OFFSET -3.198488 0.000000 0.000000 
					CHANNELS 3 Zrotation Yrotation Xrotation
					JOINT rForeArm
					{
						OFFSET -10.139888 0.000000 0.000000 
						CHANNELS 3 Yrotation Zrotation Xrotation
						JOINT rHand
						{
							OFFSET -8.370511 0.000000 0.000000 
							CHANNELS 3 Zrotation Yrotation Xrotation
							End Site
							{
								OFFSET -4.083176 0.000000 0.000000 
							}
						}
					}
				}
			}
		}
	}
	JOINT lThigh
	{
		OFFSET 5.308129 -1.633274 1.361059 
		CHANNELS 3 Xrotation Zrotation Yrotation
		JOINT lShin
		{
			OFFSET -2.041588 -20.007561 0.000000 
			CHANNELS 3 Xrotation Zrotation Yrotation
			JOINT lFoot
			{
				OFFSET 0.000000 -19.190928 -1.224953 
				CHANNELS 3 Xrotation Yrotation Zrotation
				End Site
				{
					OFFSET 0.000000 -2.449906 4.627600 
				}
			}
		}
	}
	JOINT rThigh
	{
		OFFSET -5.308129 -1.633274 1.361059 
		CHANNELS 3 Xrotation Zrotation Yrotation
		JOINT rShin
		{
			OFFSET 2.041588 -20.007561 0.000000 
			CHANNELS 3 Xrotation Zrotation Yrotation
			JOINT rFoot
			{
				OFFSET 0.000000 -19.190928 -1.224953 
				CHANNELS 3 Xrotation Yrotation Zrotation
				End Site
				{
					OFFSET 0.000000 -2.449906 4.627600 
				}
			}
		}
	}
}
MOTION
Frames: 11
Frame Time: 0.033333
-2.277388 49.462959 1.527800 -1.634835 -0.247962 -12.422010 0.000000 0.000000 0.000000 -2.921922 -1.554870 -5.666210 -1.589590 -0.350890 -3.545035 7.750445 2.135267 -3.234541 -3.521967 9.154817 6.304141 -46.800640 -8.234814 -30.532183 -34.677437 10.975951 27.789087 9.698360 0.867193 -8.758718 3.089181 -14.089146 8.026228 46.623127 20.199903 -47.516716 44.182018 4.962090 66.063179 -11.054730 -14.291550 -8.752090 -4.980390 14.910161 10.709895 28.295845 -3.483225 -26.484945 -0.674660 -0.606694 8.421895 -8.327912 -10.560955 -15.792215 21.700745 2.275817 10.681083 -6.664666 0.429724 -4.207982 
-1.859549 49.346088 1.327798 -1.713420 -0.644105 -14.082990 0.000000 0.000000 0.000000 -2.797427 -1.619656 -6.721574 -2.676526 0.604159 -3.769733 8.154681 1.862697 -2.989558 -3.521967 9.154817 6.304141 -50.821999 -9.670525 -24.298531 -36.540176 11.336968 26.563309 10.427297 1.273040 -8.812563 3.089181 -14.089146 8.026228 50.564316 22.932844 -44.262234 50.768044 8.337325 66.145630 -10.763250 -14.785892 -8.739291 -4.745664 15.902810 10.141512 29.799347 -2.458799 -29.912270 0.416996 -0.539378 8.505924 -8.953509 -10.543257 -15.548108 21.770624 2.236839 12.292119 -5.913516 0.431203 -4.508424 
-1.338842 49.226818 1.073519 -1.853165 -0.977480 -15.754434 0.000000 0.000000 0.000000 -2.245908 -1.828135 -7.914516 -4.118353 1.393256 -3.897467 8.396834 2.233670 -2.795032 -3.521967 9.154817 6.304141 -54.662022 -11.701108 -16.119053 -35.704514 13.097102 25.862255 11.107621 1.415040 -8.879165 3.089181 -14.089146 8.026228 55.201904 25.913177 -40.157383 56.604389 10.878672 65.216454 -10.390255 -15.335971 -8.738552 -4.394470 16.618074 9.439877 31.292624 -1.317719 -32.891666 2.259453 -0.414859 7.771642 -9.801861 -10.648753 -15.275800 22.130527 2.032184 13.501856 -5.235655 0.417043 -4.655587 
-0.716522 49.072731 0.762670 -1.897531 -1.388092 -17.456533 0.000000 0.000000 0.000000 -1.845905 -1.901429 -8.754866 -4.745859 2.687523 -4.359826 7.794638 1.697498 -2.579018 -3.521967 9.154817 6.304141 -59.087364 -15.207382 -6.757573 -31.913315 16.213379 26.738245 9.967731 1.303634 -8.774896 3.089181 -14.089146 8.026228 60.458855 28.496092 -34.949745 61.626358 12.476939 63.503307 -10.081830 -15.515133 -8.739406 -3.847666 17.458843 9.273785 32.354225 -0.477640 -35.804028 4.842229 -0.203638 6.027936 -10.994378 -10.670936 -14.808076 22.728664 1.631773 14.853145 -4.178421 0.379350 -4.627098 
0.092470 48.891544 0.362744 -1.989153 -1.700993 -18.807627 0.000000 0.000000 0.000000 -0.984159 -2.117478 -9.743327 -5.987496 3.715579 -5.127920 7.836996 1.531457 -2.735224 -3.521967 9.154817 6.304141 -64.160408 -19.348421 1.942109 -27.632360 19.302803 29.339685 8.297394 0.977517 -8.621582 3.089181 -14.089146 8.026228 65.720123 30.722157 -29.122328 65.800087 13.312883 62.304131 -9.265747 -15.242959 -8.775465 -3.613313 17.952812 8.858186 33.302227 0.361718 -37.139290 6.979851 -0.095268 4.267973 -12.050164 -10.917035 -14.424837 22.835402 1.267155 15.969230 -3.178311 0.349368 -4.732811 
1.096418 48.691841 -0.105292 -2.049487 -1.912349 -19.708977 0.000000 0.000000 0.000000 0.276533 -2.170184 -11.776398 -6.802652 4.479928 -5.681026 7.327911 1.306995 -2.832630 -3.521967 9.154817 6.304141 -69.660324 -22.862858 9.999806 -23.539164 21.690464 29.953716 9.489884 1.002363 -8.744085 3.089181 -14.089146 8.026228 71.250633 33.468910 -21.794077 68.716545 13.286988 61.683514 -8.626925 -15.008646 -8.804076 -3.466566 17.935169 8.399547 33.073158 1.041896 -39.146515 9.217030 -0.115045 2.328008 -13.306767 -11.469286 -14.073482 22.912508 0.890534 16.906286 -1.599618 0.271391 -4.397144 
2.298110 48.455803 -0.610865 -2.057620 -2.115242 -20.346760 0.000000 0.000000 0.000000 1.892122 -1.896656 -13.816392 -8.135983 4.826812 -6.027211 6.825883 1.511640 -2.969777 -3.521967 9.154817 6.304141 -74.884087 -26.158056 14.955331 -22.518091 21.062756 30.288553 9.925246 0.806516 -8.781731 3.089181 -14.089146 8.026228 76.404076 35.746864 -14.368454 71.073082 12.943076 60.864437 -8.411386 -14.564499 -8.811702 -3.378434 17.561859 8.195186 32.073265 1.057351 -41.682613 8.296939 -0.045196 3.584770 -14.559506 -12.176354 -13.741828 22.618402 0.490781 17.950121 0.151786 0.183275 -3.887148 
3.726311 48.237320 -1.128155 -1.970657 -2.235970 -20.856766 0.000000 0.000000 0.000000 3.766006 -1.407285 -16.118362 -9.289376 5.596506 -6.701792 6.022273 1.140911 -3.096256 -3.521967 9.154817 6.304141 -80.013229 -29.380178 18.123865 -23.187296 19.017550 32.105186 10.809503 0.331378 -8.883383 3.089181 -14.089146 8.026228 81.530510 38.286716 -6.714877 71.948120 11.947478 60.687637 -8.302680 -12.844321 -8.811583 -3.700401 16.740776 8.117284 31.784569 0.427146 -42.476376 3.456889 -0.365307 8.474775 -15.601607 -13.197932 -13.567663 21.347412 0.341814 19.517927 2.793800 0.066387 -2.967407 
5.340662 48.092579 -1.639739 -1.876408 -2.149635 -21.764194 0.000000 0.000000 0.000000 6.003339 -0.528990 -18.135590 -11.055120 5.475144 -7.132276 6.008241 1.832345 -3.585584 -3.521967 9.154817 6.304141 -85.496819 -32.884113 21.351835 -23.440321 16.450172 32.539856 13.287562 0.390274 -9.147290 3.089181 -14.089146 8.026228 86.927284 40.897709 0.424929 72.289719 10.976277 61.332119 -7.464049 -9.983326 -8.823728 -4.198962 15.378569 8.350188 31.970575 -0.714717 -37.544331 -1.910412 -1.013160 12.301599 -16.255150 -14.583236 -13.625930 18.586275 0.510637 22.090855 7.141193 -0.027918 -0.998327 
7.010640 48.078331 -2.117798 -1.950660 -1.435247 -23.289171 0.000000 0.000000 0.000000 8.293530 0.073391 -20.048838 -13.012731 5.559465 -7.368360 5.909683 2.095251 -3.693576 -3.521967 9.154817 6.304141 -90.576973 -36.047981 23.611364 -23.242815 13.910045 33.173542 13.891221 -0.624134 -9.259757 3.089181 -14.089146 8.026228 93.827309 43.028442 8.666399 71.351730 9.544627 62.726929 -7.300336 -10.184359 -8.827437 -4.383990 13.082100 8.712367 31.218229 -2.247964 -31.583778 -7.049151 -1.791273 14.886918 -16.256142 -16.556351 -14.301249 14.017356 1.477012 25.883541 12.178666 0.110730 1.354036 
8.523177 48.098076 -2.627730 -1.259438 -0.830562 -25.208048 0.000000 0.000000 0.000000 9.491365 1.134727 -21.635300 -15.039175 5.696670 -7.242981 5.928430 2.125161 -3.400443 -3.521967 9.154817 6.304141 -95.214340 -38.577469 25.302059 -22.660154 11.847059 33.847740 14.245599 -1.310502 -9.345052 3.089181 -14.089146 8.026228 100.364532 44.831379 18.538416 68.777443 7.559363 63.071518 -6.559317 -10.280058 -8.821086 -4.911217 11.334871 8.810335 29.238070 -3.227260 -27.793623 -11.171672 -2.551898 16.671703 -16.891352 -17.718870 -14.927381 9.801374 2.784025 28.273396 16.506546 0.367918 3.823580 
